<?xml version="1.0" encoding="iso-8859-1"?>
<!-- Generator: Adobe Illustrator 19.0.0, SVG Export Plug-In . SVG Version: 6.00 Build 0)  -->
<svg version="1.1" id="Layer_1" xmlns="http://www.w3.org/2000/svg" xmlns:xlink="http://www.w3.org/1999/xlink" x="0px" y="0px"
	 viewBox="0 0 512 512" style="enable-background:new 0 0 512 512;" xml:space="preserve">
<g>
	<g>
		<g>
			<path d="M76.8,358.4h153.6c4.71,0,8.533-3.823,8.533-8.533s-3.823-8.533-8.533-8.533H76.8c-4.71,0-8.533,3.823-8.533,8.533
				S72.09,358.4,76.8,358.4z"/>
			<path d="M503.467,221.867h-460.8c-4.71,0-8.533,3.823-8.533,8.533c0,4.71,3.823,8.533,8.533,8.533h452.267v162.133
				c0,14.114-11.486,25.6-25.6,25.6H42.667c-11.87,0-25.6-8.755-25.6-25.6V213.333c0-4.71-3.823-8.533-8.533-8.533
				S0,208.623,0,213.333v187.733c0,20.506,16.614,42.667,42.667,42.667h426.667c23.526,0,42.667-19.14,42.667-42.667V230.4
				C512,225.69,508.177,221.867,503.467,221.867z"/>
			<path d="M469.333,68.267H42.667C19.14,68.267,0,87.407,0,110.933v51.2c0,4.71,3.823,8.533,8.533,8.533h460.8
				c4.71,0,8.533-3.823,8.533-8.533c0-4.71-3.823-8.533-8.533-8.533H17.067v-42.667c0-14.114,11.486-25.6,25.6-25.6h426.667
				c14.114,0,25.6,11.486,25.6,25.6v85.333c0,4.71,3.823,8.533,8.533,8.533s8.533-3.823,8.533-8.533v-85.333
				C512,87.407,492.86,68.267,469.333,68.267z"/>
			<path d="M298.667,324.267c4.71,0,8.533-3.823,8.533-8.533s-3.823-8.533-8.533-8.533H230.4c-4.71,0-8.533,3.823-8.533,8.533
				s3.823,8.533,8.533,8.533H298.667z"/>
			<path d="M76.8,324.267h119.467c4.71,0,8.533-3.823,8.533-8.533s-3.823-8.533-8.533-8.533H76.8c-4.71,0-8.533,3.823-8.533,8.533
				S72.09,324.267,76.8,324.267z"/>
		</g>
	</g>
</g>
<g>
</g>
<g>
</g>
<g>
</g>
<g>
</g>
<g>
</g>
<g>
</g>
<g>
</g>
<g>
</g>
<g>
</g>
<g>
</g>
<g>
</g>
<g>
</g>
<g>
</g>
<g>
</g>
<g>
</g>
</svg>
